<svg xmlns="http://www.w3.org/2000/svg" viewBox="0 0 237.68 60.44"><defs><style>.cls-1{fill:#ffb600;}.cls-10,.cls-13,.cls-2,.cls-4,.cls-5,.cls-9{fill:#019eec;}.cls-3{fill:#ffb500;}.cls-10,.cls-11,.cls-12,.cls-13,.cls-14,.cls-4,.cls-5,.cls-6,.cls-7,.cls-8,.cls-9{stroke:#019eec;}.cls-4{stroke-width:0.23px;}.cls-10,.cls-5,.cls-9{stroke-miterlimit:4.5;}.cls-5{stroke-width:0.13px;}.cls-11,.cls-12,.cls-14,.cls-6,.cls-7,.cls-8{fill:none;}.cls-14,.cls-6,.cls-7,.cls-8{stroke-miterlimit:10;}.cls-6{stroke-width:1.07px;}.cls-7{stroke-width:2.42px;}.cls-8{stroke-width:0.8px;}.cls-9{stroke-width:0.13px;}.cls-10{stroke-width:0px;}.cls-11,.cls-12{stroke-linejoin:round;}.cls-11{stroke-width:0.46px;}.cls-12{stroke-width:1.19px;}.cls-13{stroke-width:0.11px;}.cls-14{stroke-width:1.16px;}</style></defs><g id="Layer_2" data-name="Layer 2"><g id="svg2"><path id="path2890" class="cls-1" d="M33,59.61l8.89-11.73L35.2,47l-3.76,4.53c-.82,1-2.18.39-2.89-.11L9.29,37.64c-.73-.52-.11-1.43.65-1.55l19.29-3.18L31.53,29l-30.12,5c-1.12.19-2,1.47-.95,2.31L28.71,59.44c1,.82,3.14,1.68,4.28.17"/><path id="path2892" class="cls-2" d="M51.78,1.39,75,43.63c2.36,4.31,0,8.79-4.07,8.23L44,48.17l2.66-4.54,19.4,2.5c2,.28,1.8-1.11,1-2.66L50.69,9.37c-.35-.62-1.52-.95-1.91-.27L30.67,39.94c-.53.91-.68,1.52.48,1.68l7.66,1L35.2,47l-9.72-1.34c-1.82-.24-2.61-1.88-1.54-3.71L47.26,2.18c1.05-1.78,3.06-3.45,4.52-.79"/><path id="path2894" class="cls-3" d="M45.24,43.44,47.12,41,55.41,30c1.85-2.44,1.46-5.2-1-4.78l-14.63,2.4-1.87,3.86,7.85-1.29c1.69-.28,2,1.64.71,3.23l-5.32,6.4-2.3,2.78-6.36,7.66,5.23,3.15,7.56-10"/><path id="path9" class="cls-4" d="M103.49,11.87h-.63c-.45-1.35-.83-2.42-1.16-3.22a8.39,8.39,0,0,0-1-1.83A2.27,2.27,0,0,0,99.68,6a5,5,0,0,0-3.45.27,3.86,3.86,0,0,0-1.56,1.57,9.47,9.47,0,0,0-1,3,25.34,25.34,0,0,0-.34,4.56,27.85,27.85,0,0,0,.31,4.59,9.05,9.05,0,0,0,1,2.93,3.78,3.78,0,0,0,1.62,1.58,5.23,5.23,0,0,0,2.29.46,3.15,3.15,0,0,0,1.53-.35,3.23,3.23,0,0,0,1.15-1.15,9.66,9.66,0,0,0,.92-2.13c.28-.88.58-2,.91-3.28h.63v6.35a10.39,10.39,0,0,1-2.52.9,12.35,12.35,0,0,1-2.62.28,8.33,8.33,0,0,1-3.45-.72,8.08,8.08,0,0,1-2.78-2,9.45,9.45,0,0,1-1.87-3.2,12.45,12.45,0,0,1-.68-4.22,12.49,12.49,0,0,1,.68-4.22,9.62,9.62,0,0,1,1.87-3.2,8.11,8.11,0,0,1,2.78-2,8.33,8.33,0,0,1,3.45-.72,11.19,11.19,0,0,1,2.69.3,13.27,13.27,0,0,1,2.28.77v5.63Z"/><path id="path11" class="cls-4" d="M107.51,15.92V11.36a16.63,16.63,0,0,1,2-.73,7.44,7.44,0,0,1,2.07-.28,6.7,6.7,0,0,1,2.17.32,5.16,5.16,0,0,1,1.51.83,3,3,0,0,1,.88,1.16,3.16,3.16,0,0,1,.28,1.29V24.46h1.29v.62H114.1V22.61H114a4.51,4.51,0,0,1-1.55,2.12,4.1,4.1,0,0,1-2.52.8,4.21,4.21,0,0,1-2.94-1,3.73,3.73,0,0,1-1.13-2.89,4,4,0,0,1,.42-2,3.08,3.08,0,0,1,1.11-1.18,5.14,5.14,0,0,1,1.57-.65c.58-.14,1.17-.26,1.78-.38s1.2-.24,1.78-.38a5.19,5.19,0,0,0,1.54-.63v-3a2.49,2.49,0,0,0-.63-1.92,2.4,2.4,0,0,0-1.7-.58,2.76,2.76,0,0,0-1.18.22,2.26,2.26,0,0,0-.87.78,6.85,6.85,0,0,0-.77,1.52c-.25.64-.53,1.45-.85,2.43Zm6.59,1.23a8.19,8.19,0,0,1-2.13.76,9.73,9.73,0,0,0-1.76.52,2.65,2.65,0,0,0-1.19,1,4.08,4.08,0,0,0-.44,2.19,3.49,3.49,0,0,0,.55,2.25,2,2,0,0,0,1.62.65A2.91,2.91,0,0,0,113.18,23a6.8,6.8,0,0,0,.92-3.75V17.15Z"/><path id="path13" class="cls-4" d="M119.43,10.8h3.75v1.91h0a5.27,5.27,0,0,1,1.42-1.63,3.71,3.71,0,0,1,2.36-.73,4.77,4.77,0,0,1,1.46.21,2.8,2.8,0,0,1,1.14.7,3.42,3.42,0,0,1,.75,1.28,6.05,6.05,0,0,1,.27,1.94v10h1.44v.62h-5.52v-.62h1.56V14.15a3.72,3.72,0,0,0-.47-2.18,1.65,1.65,0,0,0-1.41-.61,2.38,2.38,0,0,0-1.07.26,2.45,2.45,0,0,0-.9.78,4.91,4.91,0,0,0-.63,1.34,6.65,6.65,0,0,0-.24,1.9v8.82H125v.62h-5.52v-.62h1.44v-13h-1.44V10.8Z"/><path id="path15" class="cls-4" d="M135.8,15.92V11.36a16.63,16.63,0,0,1,2-.73,7.42,7.42,0,0,1,2.06-.28,6.62,6.62,0,0,1,2.17.32,5.09,5.09,0,0,1,1.52.83,3,3,0,0,1,.88,1.16,3.16,3.16,0,0,1,.28,1.29V24.46H146v.62h-3.64V22.61h-.06a4.51,4.51,0,0,1-1.55,2.12,4.12,4.12,0,0,1-2.52.8,4.21,4.21,0,0,1-2.94-1,3.73,3.73,0,0,1-1.13-2.89,4.16,4.16,0,0,1,.41-2,3.18,3.18,0,0,1,1.12-1.18,5.19,5.19,0,0,1,1.56-.65c.58-.14,1.18-.26,1.79-.38s1.2-.24,1.78-.38a5.19,5.19,0,0,0,1.54-.63v-3a2.49,2.49,0,0,0-.63-1.92,2.4,2.4,0,0,0-1.7-.58,2.76,2.76,0,0,0-1.18.22A2.26,2.26,0,0,0,138,12a6.85,6.85,0,0,0-.77,1.52c-.25.64-.53,1.45-.86,2.43Zm6.59,1.23a8.25,8.25,0,0,1-2.14.76,9.85,9.85,0,0,0-1.75.52,2.65,2.65,0,0,0-1.19,1,4.08,4.08,0,0,0-.44,2.19,3.56,3.56,0,0,0,.54,2.25,2,2,0,0,0,1.62.65A2.92,2.92,0,0,0,141.47,23a6.8,6.8,0,0,0,.91-3.75V17.15Z"/><path id="path17" class="cls-4" d="M149.38,11.42h-1.45V10.8h3.91v2.08h.06A4.15,4.15,0,0,1,153.09,11a3.07,3.07,0,0,1,2-.65,3.15,3.15,0,0,1,1,.18c.35.13.62.23.82.33v5.51h-.59l-.94-2.9a11.45,11.45,0,0,0-.64-1.61.83.83,0,0,0-.75-.5,1.2,1.2,0,0,0-.81.37,3.09,3.09,0,0,0-.69,1,7.34,7.34,0,0,0-.49,1.46A8.39,8.39,0,0,0,151.9,16v8.49h1.76v.62h-5.73v-.62h1.45v-13Z"/><path id="path19" class="cls-4" d="M160.6,15.92V11.36a17.37,17.37,0,0,1,2-.73,7.37,7.37,0,0,1,2.06-.28,6.66,6.66,0,0,1,2.17.32,5,5,0,0,1,1.51.83,3.07,3.07,0,0,1,.89,1.16,3.16,3.16,0,0,1,.28,1.29V24.46h1.29v.62h-3.65V22.61h-.05a4.46,4.46,0,0,1-1.56,2.12,4.09,4.09,0,0,1-2.51.8,4.22,4.22,0,0,1-2.95-1A3.72,3.72,0,0,1,159,21.62a4,4,0,0,1,.41-2,3.23,3.23,0,0,1,1.11-1.18,5.36,5.36,0,0,1,1.57-.65c.58-.14,1.17-.26,1.78-.38s1.2-.24,1.78-.38a5.08,5.08,0,0,0,1.54-.63v-3a2.49,2.49,0,0,0-.63-1.92,2.39,2.39,0,0,0-1.7-.58,2.79,2.79,0,0,0-1.18.22,2.26,2.26,0,0,0-.87.78,6.88,6.88,0,0,0-.76,1.52c-.25.64-.54,1.45-.86,2.43Zm6.59,1.23a8.19,8.19,0,0,1-2.13.76,9.61,9.61,0,0,0-1.75.52,2.73,2.73,0,0,0-1.2,1,4.18,4.18,0,0,0-.44,2.19,3.49,3.49,0,0,0,.55,2.25,2,2,0,0,0,1.62.65A2.92,2.92,0,0,0,166.28,23a6.89,6.89,0,0,0,.91-3.75V17.15Z"/><path id="path21" class="cls-4" d="M181.84,6.25h-1.6V5.63h7.66a7.72,7.72,0,0,1,2.33.33,5.5,5.5,0,0,1,1.77.93,4.24,4.24,0,0,1,1.12,1.41,3.9,3.9,0,0,1,.4,1.77,4.37,4.37,0,0,1-.39,1.91,3.89,3.89,0,0,1-1,1.36,5.3,5.3,0,0,1-1.44.88,8,8,0,0,1-1.64.46v.06a7.61,7.61,0,0,1,4.34,1.57,4.09,4.09,0,0,1,1.5,3.23,5.09,5.09,0,0,1-.48,2.2,4.7,4.7,0,0,1-1.47,1.75,7.49,7.49,0,0,1-2.51,1.17,13.58,13.58,0,0,1-3.6.42h-6.56v-.62h1.6V6.25Zm2.9,8.32h1.52a4.55,4.55,0,0,0,3.12-1,4.29,4.29,0,0,0,1.09-3.33,4.57,4.57,0,0,0-.84-3.08,3.11,3.11,0,0,0-2.43-.94h-2.46Zm0,9.89H186a6.65,6.65,0,0,0,4.2-1.08c.89-.72,1.34-2,1.34-3.78a4.52,4.52,0,0,0-1.07-3.41,4.76,4.76,0,0,0-3.35-1h-2.38v9.27Z"/><path id="path23" class="cls-4" d="M198.83,15.92V11.36a16.63,16.63,0,0,1,2-.73,7.44,7.44,0,0,1,2.07-.28,6.66,6.66,0,0,1,2.17.32,5.16,5.16,0,0,1,1.51.83,3,3,0,0,1,.88,1.16,3.18,3.18,0,0,1,.29,1.29V24.46h1.28v.62h-3.64V22.61h0a4.52,4.52,0,0,1-1.56,2.12,4.1,4.1,0,0,1-2.52.8,4.21,4.21,0,0,1-2.94-1,3.73,3.73,0,0,1-1.13-2.89,4,4,0,0,1,.42-2,3.08,3.08,0,0,1,1.11-1.18,5.25,5.25,0,0,1,1.57-.65c.58-.14,1.17-.26,1.78-.38s1.2-.24,1.78-.38a5.19,5.19,0,0,0,1.54-.63v-3a2.49,2.49,0,0,0-.63-1.92,2.4,2.4,0,0,0-1.7-.58,2.76,2.76,0,0,0-1.18.22A2.26,2.26,0,0,0,201,12a7.31,7.31,0,0,0-.77,1.52c-.25.64-.53,1.45-.85,2.43Zm6.59,1.23a8.19,8.19,0,0,1-2.13.76,9.73,9.73,0,0,0-1.76.52,2.65,2.65,0,0,0-1.19,1,4.18,4.18,0,0,0-.44,2.19,3.49,3.49,0,0,0,.55,2.25,2,2,0,0,0,1.62.65A2.91,2.91,0,0,0,204.5,23a6.8,6.8,0,0,0,.92-3.75V17.15Z"/><path id="path25" class="cls-4" d="M210.75,10.8h3.75v1.91h.05A5.27,5.27,0,0,1,216,11.08a3.71,3.71,0,0,1,2.36-.73,4.77,4.77,0,0,1,1.46.21,2.8,2.8,0,0,1,1.14.7,3.42,3.42,0,0,1,.75,1.28,6.05,6.05,0,0,1,.27,1.94v10h1.44v.62h-5.51v-.62h1.55V14.15A3.72,3.72,0,0,0,219,12a1.64,1.64,0,0,0-1.4-.61,2.39,2.39,0,0,0-1.08.26,2.34,2.34,0,0,0-.89.78,4.39,4.39,0,0,0-.63,1.34,6.3,6.3,0,0,0-.25,1.9v8.82h1.56v.62h-5.52v-.62h1.45v-13h-1.45V10.8Z"/><path id="path27" class="cls-4" d="M225.29,25.08v-.62h1.45V6.25h-1.45V5.63h4V17.38l5-6h-1.71V10.8h3.86v.62h-1.29l-3.83,4.64,5.49,8.4h.75v.62h-3.32l-4.93-7.48h-.05v6.86H231v.62Z"/><g id="g30"><path id="path32" class="cls-5" d="M118.88,45.77a4.19,4.19,0,1,1-4.18-3.93A4.07,4.07,0,0,1,118.88,45.77Zm-2.5.09c0-1.72-.8-3.1-1.76-3.1s-1.75,1.38-1.75,3.1.78,3.1,1.75,3.1S116.38,47.58,116.38,45.86Z"/></g><line id="line36" class="cls-6" x1="113.65" y1="42.35" x2="121.37" y2="42.35"/><line id="line38" class="cls-7" x1="122.17" y1="38.96" x2="122.17" y2="52.47"/><line id="line40" class="cls-8" x1="119.71" y1="52.38" x2="124.44" y2="52.38"/><line id="line42" class="cls-7" x1="139.2" y1="38.96" x2="139.2" y2="52.47"/><line id="line44" class="cls-8" x1="136.74" y1="52.38" x2="141.47" y2="52.38"/><g id="g47"><path id="path49" class="cls-5" d="M176.44,43.89c.91,2.74-.15,6.87-3.6,6.6a3.09,3.09,0,0,1-1.47-.43V46.87h.06c.82.75.69,3.33,2,2.75s1.13-3.43,1.05-4.53c-.26-3.67-3.12-4.47-4.93-1.2V42.15a4.2,4.2,0,0,1,6.91,1.74Z"/><polygon id="polygon51" class="cls-9" points="167.64 48.7 167.56 42.87 167.55 41.71 167.5 38.47 169.53 38.47 169.53 42.15 169.53 43.88 169.53 51.94 170.81 51.94 170.81 52.7 166.63 52.7 166.63 51.84 167.4 51.89 167.68 51.8 167.65 49.3 167.64 48.7"/><path id="path53" class="cls-5" d="M167.64,48.71v.59a2.93,2.93,0,0,1-2.85,1.48c-3.2-.19-4.4-3.84-3.75-6.56.75-3.19,3.88-4,6.45-2.51h.05v1.15h-.1c-3.1-2.78-4.54.26-4.27,3.48.17,2.12,2.63,5.31,4.4,2.37Z"/></g><g id="g58"><path id="path60" class="cls-5" d="M107.17,43.89c.91,2.74-.15,6.87-3.6,6.6a3,3,0,0,1-1.46-.43V46.87h0c.82.75.7,3.33,2,2.75s1.13-3.43,1-4.53c-.26-3.67-3.12-4.47-4.92-1.2V42.15A4.19,4.19,0,0,1,107.17,43.89Z"/><path id="path62" class="cls-5" d="M98.38,49.3v-.59l-.08-5.84V41.71l0-3.23-3.12-4.3H93.17V33h3.41l3.69,5.46V52h1.27v.77H97.36V52h1.06l0-2.72Z"/><path id="path64" class="cls-5" d="M98.38,49.3h0a2.94,2.94,0,0,1-2.85,1.47c-3.2-.19-4.39-3.84-3.75-6.56.75-3.19,3.89-4,6.45-2.51h0v1.16h-.1c-3.1-2.79-4.53.25-4.27,3.47.17,2.12,2.63,5.31,4.41,2.37h0Z"/></g><g id="g69"><polygon id="polygon71" class="cls-10" points="155.23 52.79 155.23 51.93 156 51.98 156.29 51.89 156.25 49.16 156.25 49.15 156.24 48.56 156.16 42.72 156.15 41.56 156.1 38.56 154.83 34.4 153.23 34.4 153.23 33.48 156.3 33.48 158.14 38.56 158.14 52.02 159.41 52.02 159.41 52.79 155.23 52.79"/><path id="path73" class="cls-5" d="M156.25,49.15h0c-.52,1.05-2.09,1.54-3.37,1.47-3.68-.18-5-3.83-4.3-6.55.86-3.19,5-4.06,7.53-2.52h0v1.16h-.1c-3.1-2.78-5.32.26-5,3.48-.24,3.28,3.4,5.31,5.17,2.36h0Z"/></g><g id="g78"><polygon id="polygon80" class="cls-10" points="149.51 34.7 152.6 34.7 157.27 39.21 157.27 39.36 155.28 39.36 151.14 35.63 149.51 35.63 149.51 34.7"/><path id="path82" class="cls-5" d="M133.62,44.36h-1.56c2.39-1.2,1-4,.35-5.4h1.83c1,.89,1.72,1.7,1.56,3.13s-.83,2.59-2.18,2.47Z"/><path id="path84" class="cls-5" d="M134.71,48.76V51.6a5.93,5.93,0,0,1-.62.4c-2.17,1.19-6,.61-6.24-2.52V44.36h2.36V50.5c.16,2.28,4.36,2.09,4.36-1.74Z"/></g><g id="g86"><polyline id="polyline88" class="cls-11" points="126.34 44.36 127.85 44.36 130.21 44.36 132.06 44.36 133.62 44.36 133.81 44.36"/><polyline id="polyline90" class="cls-12" points="92.74 38.96 132.41 38.96 134.24 38.96 142.24 38.96"/><polyline id="polyline92" class="cls-12" points="149.51 38.91 155.19 38.91 157.18 38.91 176.77 38.91"/></g><ellipse id="ellipse94" class="cls-13" cx="159.98" cy="36.55" rx="1.16" ry="1.08"/><line id="line96" class="cls-14" x1="150.27" y1="42.88" x2="156.9" y2="47.97"/></g></g></svg>