<svg xmlns="http://www.w3.org/2000/svg" viewBox="0 0 75.9 60.44"><defs><style>.cls-1{fill:#ffb600;}.cls-2{fill:#019eec;}.cls-3{fill:#ffb500;}</style></defs><g id="Layer_2" data-name="Layer 2"><g id="svg2"><path id="path2890" class="cls-1" d="M33,59.61l8.89-11.73L35.2,47l-3.76,4.53c-.82,1-2.18.39-2.89-.11L9.29,37.64c-.73-.52-.11-1.43.65-1.55l19.29-3.18L31.53,29l-30.12,5c-1.12.19-2,1.47-.95,2.31L28.71,59.44c1,.82,3.14,1.68,4.28.17"/><path id="path2892" class="cls-2" d="M51.78,1.39,75,43.63c2.36,4.31,0,8.79-4.07,8.23L44,48.17l2.66-4.54,19.4,2.5c2,.28,1.8-1.11,1-2.66L50.69,9.37c-.35-.62-1.52-.95-1.91-.27L30.67,39.94c-.53.91-.68,1.52.48,1.68l7.66,1L35.2,47l-9.72-1.34c-1.82-.24-2.61-1.88-1.54-3.71L47.26,2.18c1.05-1.78,3.06-3.45,4.52-.79"/><path id="path2894" class="cls-3" d="M45.24,43.44,47.12,41,55.41,30c1.85-2.44,1.46-5.2-1-4.78l-14.63,2.4-1.87,3.86,7.85-1.29c1.69-.28,2,1.64.71,3.23l-5.32,6.4-2.3,2.78-6.36,7.66,5.23,3.15,7.56-10"/></g></g></svg>